<svg xmlns="http://www.w3.org/2000/svg" xmlns:xlink="http://www.w3.org/1999/xlink" version="1.1" x="0px" y="0px" viewBox="0 0 100 125" enable-background="new 0 0 100 100" xml:space="preserve"><path d="M91.966,89.447C91.745,90.915,90.484,92,89,92H11c-1.484,0-2.747-1.085-2.966-2.553c-0.221-1.469,0.665-2.877,2.084-3.313  c11.404-3.51,21.264-5.757,33.882-6.07l-0.001-21.09c0,0-0.001,0-0.001,0c-0.011-11.504-6.905-18.058-16.611-20.636  c-0.462-0.123-0.806,0.421-0.523,0.806c4.498,6.112,7.224,12.497,8.14,18.406c0.071,0.457-0.339,0.858-0.798,0.8  C13.069,55.641,8.001,42.734,8,23.016c0-1.655,1.308-3.015,2.963-3.016c13.939-0.008,27.48,4.543,34.285,16.769  C50.215,16.153,67.85,8,89.001,8C90.66,8,92,9.342,92,11.001c0,21.651-6.022,35.177-29.562,38.224  c-0.228,0.029-0.431-0.167-0.392-0.393c1.145-6.614,4.821-14.767,10.964-21.741c0.278-0.316-0.02-0.807-0.422-0.682  c-11.14,3.472-19.48,12.036-19.578,23.515c-0.003,0-0.006,0-0.009,0v30.212c12.709,0.531,26.116,2.683,36.882,5.997  C91.301,86.57,92.188,87.978,91.966,89.447z"/><text x="0" y="115" fill="#000000" font-size="5px" font-weight="bold" font-family="'Helvetica Neue', Helvetica, Arial-Unicode, Arial, Sans-serif">Created by Ayub Irawan</text><text x="0" y="120" fill="#000000" font-size="5px" font-weight="bold" font-family="'Helvetica Neue', Helvetica, Arial-Unicode, Arial, Sans-serif">from the Noun Project</text></svg>