<svg xmlns:dc="http://purl.org/dc/elements/1.1/" xmlns:cc="http://creativecommons.org/ns#" xmlns:rdf="http://www.w3.org/1999/02/22-rdf-syntax-ns#" xmlns:svg="http://www.w3.org/2000/svg" xmlns="http://www.w3.org/2000/svg" xmlns:sodipodi="http://sodipodi.sourceforge.net/DTD/sodipodi-0.dtd" xmlns:inkscape="http://www.inkscape.org/namespaces/inkscape" version="1.1" x="0px" y="0px" viewBox="0 0 100 125"><g transform="translate(0,-952.36218)"><path style="text-indent:0;text-transform:none;direction:ltr;block-progression:tb;baseline-shift:baseline;color:#000000;enable-background:accumulate;" d="m 45.389529,959.30521 c -3.2287,5.2389 -6.9686,13.2916 -6.9686,21.5618 0,4.2467 1.5082,7.037 3.0312,9.156 1.4871,2.069 2.8243,3.56 3.6249,6.2498 l 0,4.81229 c -0.6307,-1.16739 -1.4972,-2.37209 -2.6874,-3.56239 -5.849,-5.8489 -14.169501,-8.9171 -20.155601,-10.3434 -1.4062,-0.3035 -2.7117,0.9819 -2.4062,2.4375 1.3963,5.8599 3.7993,14.08919 9.6872,19.96809 3.004601,3.0088 6.113901,3.9638 8.812201,4.4373 2.3955,0.4204 4.4342,0.5915 6.7498,1.625 l 0,28.6866 c -0.015,1.0566 0.9433,2.0284 1.9999,2.0284 1.0567,0 2.0149,-0.9718 2,-2.0284 l 0,-17.062 c 3.084,-1.47 5.7673,-1.6856 8.8122,-2.2187 3.2697,-0.5724 6.9209,-1.6709 10.5309,-5.2811 7.0983,-7.0983 10.0532,-17.108 11.7496,-24.24919 0.2817,-1.1691 -0.7348,-2.4644 -1.9374,-2.4687 -0.158,0.002 -0.3157,0.0233 -0.4687,0.0625 -7.2656,1.7363 -17.4097,5.4832 -24.4681,12.53089 -2.2201,2.2202 -3.468,4.4079 -4.2185,6.4998 l 0,-15.87449 c 0.9014,-2.7624 2.3473,-4.4482 3.8748,-6.6248 1.5741,-2.243 3.0936,-5.1185 3.0936,-9.3747 0,-8.3277 -4.1018,-15.8438 -7.2497,-20.9681 -0.7533,-1.2928 -2.6701,-1.2214 -3.4061,0 z" fill="#000000" fill-opacity="1" fill-rule="evenodd" stroke="none" marker="none" visibility="visible" display="inline" overflow="visible"/></g><text x="0" y="115" fill="#000000" font-size="5px" font-weight="bold" font-family="'Helvetica Neue', Helvetica, Arial-Unicode, Arial, Sans-serif">Created by alerma</text><text x="0" y="120" fill="#000000" font-size="5px" font-weight="bold" font-family="'Helvetica Neue', Helvetica, Arial-Unicode, Arial, Sans-serif">from the Noun Project</text></svg>